<svg width="28" height="28" viewBox="0 0 28 28" fill="none" xmlns="http://www.w3.org/2000/svg">
<g clip-path="url(#clip0_834_87)">
<path d="M13.9999 2.33334C7.55992 2.33334 2.33325 7.56001 2.33325 14C2.33325 20.44 7.55992 25.6667 13.9999 25.6667C20.4399 25.6667 25.6666 20.44 25.6666 14C25.6666 7.56001 20.4399 2.33334 13.9999 2.33334ZM13.9999 7.00001C16.2516 7.00001 18.0833 8.83168 18.0833 11.0833C18.0833 13.335 16.2516 15.1667 13.9999 15.1667C11.7483 15.1667 9.91658 13.335 9.91658 11.0833C9.91658 8.83168 11.7483 7.00001 13.9999 7.00001ZM13.9999 23.3333C11.6316 23.3333 8.83159 22.3767 6.83659 19.9733C8.80825 18.4333 11.2933 17.5 13.9999 17.5C16.7066 17.5 19.1916 18.4333 21.1632 19.9733C19.1683 22.3767 16.3683 23.3333 13.9999 23.3333Z" fill="#F57314"/>
</g>
<defs>
<clipPath id="clip0_834_87">
<rect width="28" height="28" fill="white"/>
</clipPath>
</defs>
</svg>
