<svg width="28" height="28" viewBox="0 0 28 28" fill="none" xmlns="http://www.w3.org/2000/svg">
<path d="M2.79999 23.3334H4.81249C4.9486 23.3334 5.0604 23.2847 5.1479 23.1875C5.2354 23.0903 5.26943 22.9834 5.24999 22.8667C5.15277 22.225 4.88054 21.666 4.43332 21.1896C3.9861 20.7132 3.45138 20.4264 2.82915 20.3292C2.71249 20.3097 2.60554 20.3438 2.50832 20.4313C2.4111 20.5188 2.36249 20.6306 2.36249 20.7667V22.8959C2.36249 23.0125 2.40624 23.1146 2.49374 23.2021C2.58124 23.2896 2.68332 23.3334 2.79999 23.3334ZM7.90415 23.3334C8.15693 23.3334 8.36596 23.2459 8.53124 23.0709C8.69652 22.8959 8.75971 22.6917 8.72082 22.4584C8.52638 21 7.9236 19.7507 6.91249 18.7104C5.90138 17.6702 4.67638 17.0528 3.23749 16.8584C3.00415 16.8195 2.79999 16.8827 2.62499 17.0479C2.44999 17.2132 2.36249 17.4222 2.36249 17.675C2.36249 17.8889 2.44513 18.0931 2.6104 18.2875C2.77568 18.482 2.98471 18.5986 3.23749 18.6375C4.19027 18.8125 5.00207 19.25 5.6729 19.95C6.34374 20.65 6.76665 21.4861 6.94165 22.4584C6.98054 22.7111 7.09235 22.9202 7.27707 23.0854C7.46179 23.2507 7.67082 23.3334 7.90415 23.3334ZM11.4333 23.3334C11.6667 23.3334 11.866 23.2459 12.0312 23.0709C12.1965 22.8959 12.2694 22.6917 12.25 22.4584C12.1528 21.2528 11.8514 20.1202 11.3458 19.0604C10.8403 18.0007 10.1889 17.0625 9.39165 16.2459C8.59443 15.4292 7.67082 14.7632 6.62082 14.2479C5.57082 13.7327 4.44304 13.4264 3.23749 13.3292C3.00415 13.3097 2.79999 13.3827 2.62499 13.5479C2.44999 13.7132 2.36249 13.9222 2.36249 14.175C2.36249 14.4084 2.44513 14.6125 2.6104 14.7875C2.77568 14.9625 2.98471 15.0695 3.23749 15.1084C5.18193 15.3222 6.82013 16.1146 8.15207 17.4854C9.48402 18.8563 10.2569 20.5139 10.4708 22.4584C10.5097 22.7111 10.6167 22.9202 10.7917 23.0854C10.9667 23.2507 11.1805 23.3334 11.4333 23.3334ZM4.11249 4.66669H23.9458C24.393 4.66669 24.7965 4.84655 25.1562 5.20627C25.516 5.56599 25.6958 5.96946 25.6958 6.41669V21.5834C25.6958 22.0306 25.516 22.434 25.1562 22.7938C24.7965 23.1535 24.393 23.3334 23.9458 23.3334H14.9042C14.6514 23.3334 14.4423 23.2507 14.2771 23.0854C14.1118 22.9202 14.0292 22.7111 14.0292 22.4584C14.0292 22.2056 14.1118 21.9965 14.2771 21.8313C14.4423 21.666 14.6514 21.5834 14.9042 21.5834H23.9458V6.41669H4.11249V10.675C4.11249 10.9084 4.02499 11.1125 3.84999 11.2875C3.67499 11.4625 3.47082 11.55 3.23749 11.55C2.98471 11.55 2.77568 11.4674 2.6104 11.3021C2.44513 11.1368 2.36249 10.9278 2.36249 10.675V6.41669C2.36249 5.96946 2.53749 5.56599 2.88749 5.20627C3.23749 4.84655 3.64582 4.66669 4.11249 4.66669Z" fill="white"/>
</svg>
