<svg width="20" height="12" viewBox="0 0 20 12" fill="none" xmlns="http://www.w3.org/2000/svg">
<path fill-rule="evenodd" clip-rule="evenodd" d="M18.4667 0.666656H17.32C16.6867 0.666656 16.1733 1.11437 16.1733 1.66666V10.3333C16.1733 10.8856 16.6867 11.3333 17.32 11.3333H18.4667C19.0999 11.3333 19.6133 10.8856 19.6133 10.3333V1.66666C19.6133 1.11437 19.0999 0.666656 18.4667 0.666656ZM11.9689 2.99999H13.1156C13.7488 2.99999 14.2622 3.44771 14.2622 3.99999V10.3333C14.2622 10.8856 13.7488 11.3333 13.1156 11.3333H11.9689C11.3356 11.3333 10.8222 10.8856 10.8222 10.3333V3.99999C10.8222 3.44771 11.3356 2.99999 11.9689 2.99999ZM7.76444 5.33332H6.61777C5.98449 5.33332 5.47111 5.78104 5.47111 6.33332V10.3333C5.47111 10.8856 5.98449 11.3333 6.61777 11.3333H7.76444C8.39773 11.3333 8.91111 10.8856 8.91111 10.3333V6.33332C8.91111 5.78104 8.39773 5.33332 7.76444 5.33332ZM2.41333 7.33332H1.26666C0.633375 7.33332 0.119995 7.78104 0.119995 8.33332V10.3333C0.119995 10.8856 0.633375 11.3333 1.26666 11.3333H2.41333C3.04661 11.3333 3.55999 10.8856 3.55999 10.3333V8.33332C3.55999 7.78104 3.04661 7.33332 2.41333 7.33332Z" fill="black"/>
</svg>
