<svg width="16" height="16" viewBox="0 0 16 16" fill="none" xmlns="http://www.w3.org/2000/svg">
<path d="M8.00002 11.2C7.11637 11.2 6.40002 11.9163 6.40002 12.8C6.40002 13.6836 7.11637 14.4 8.00002 14.4C8.88368 14.4 9.60002 13.6836 9.60002 12.8C9.60002 11.9163 8.88368 11.2 8.00002 11.2Z" fill="white"/>
<path d="M8.00002 6.39999C7.11637 6.39999 6.40002 7.11634 6.40002 7.99999C6.40002 8.88365 7.11637 9.59999 8.00002 9.59999C8.88368 9.59999 9.60002 8.88365 9.60002 7.99999C9.60002 7.11634 8.88368 6.39999 8.00002 6.39999Z" fill="white"/>
<path d="M8.00002 1.59999C7.11637 1.59999 6.40002 2.31634 6.40002 3.2C6.40002 4.08365 7.11637 4.79999 8.00002 4.79999C8.88368 4.79999 9.60002 4.08365 9.60002 3.2C9.60002 2.31634 8.88368 1.59999 8.00002 1.59999Z" fill="white"/>
</svg>
