<svg width="28" height="28" viewBox="0 0 28 28" fill="none" xmlns="http://www.w3.org/2000/svg">
<path fill-rule="evenodd" clip-rule="evenodd" d="M6.99999 2.80005C7.77319 2.80005 8.39999 3.42685 8.39999 4.20005V5.60005H9.79999C10.5732 5.60005 11.2 6.22685 11.2 7.00005C11.2 7.77325 10.5732 8.40005 9.79999 8.40005H8.39999V9.80005C8.39999 10.5732 7.77319 11.2 6.99999 11.2C6.22679 11.2 5.59999 10.5732 5.59999 9.80005V8.40005H4.19999C3.42679 8.40005 2.79999 7.77325 2.79999 7.00005C2.79999 6.22685 3.42679 5.60005 4.19999 5.60005H5.59999V4.20005C5.59999 3.42685 6.22679 2.80005 6.99999 2.80005ZM6.99999 16.8C7.77319 16.8 8.39999 17.4269 8.39999 18.2001V19.6H9.79999C10.5732 19.6 11.2 20.2269 11.2 21C11.2 21.7732 10.5732 22.4001 9.79999 22.4001H8.39999V23.8001C8.39999 24.5732 7.77319 25.2001 6.99999 25.2001C6.22679 25.2001 5.59999 24.5732 5.59999 23.8001V22.4001H4.19999C3.42679 22.4001 2.79999 21.7732 2.79999 21C2.79999 20.2269 3.42679 19.6 4.19999 19.6H5.59999V18.2001C5.59999 17.4269 6.22679 16.8 6.99999 16.8Z" fill="#F57314"/>
<path fill-rule="evenodd" clip-rule="evenodd" d="M16.7999 2.80005C17.4351 2.80005 17.9908 3.22772 18.1533 3.8418L19.8042 10.0786L24.4995 12.7874C24.9329 13.0374 25.1999 13.4997 25.1999 14C25.1999 14.5004 24.9329 14.9627 24.4995 15.2127L19.8042 17.9215L18.1533 24.1583C17.9908 24.7724 17.4351 25.2001 16.7999 25.2001C16.1647 25.2001 15.6091 24.7724 15.4465 24.1583L13.7956 17.9215L9.10037 15.2127C8.66699 14.9627 8.39999 14.5004 8.39999 14C8.39999 13.4997 8.66699 13.0374 9.10037 12.7874L13.7956 10.0786L15.4465 3.8418C15.6091 3.22772 16.1647 2.80005 16.7999 2.80005Z" fill="#F57314"/>
</svg>
