<svg width="28" height="28" viewBox="0 0 28 28" fill="none" xmlns="http://www.w3.org/2000/svg">
<path d="M14.99 3.21004C14.4433 2.6633 13.5568 2.6633 13.0101 3.21004L3.2101 13.01C2.66337 13.5568 2.66337 14.4432 3.2101 14.9899C3.75683 15.5367 4.64326 15.5367 5.19 14.9899L5.60005 14.5799V23.8C5.60005 24.5732 6.22685 25.2 7.00005 25.2H9.80005C10.5732 25.2 11.2 24.5732 11.2 23.8V21C11.2 20.2268 11.8269 19.6 12.6 19.6H15.4C16.1732 19.6 16.8 20.2268 16.8 21V23.8C16.8 24.5732 17.4269 25.2 18.2001 25.2H21C21.7732 25.2 22.4001 24.5732 22.4001 23.8V14.5799L22.8101 14.9899C23.3568 15.5367 24.2433 15.5367 24.79 14.9899C25.3367 14.4432 25.3367 13.5568 24.79 13.01L14.99 3.21004Z" fill="#F57314"/>
</svg>
