<svg width="28" height="28" viewBox="0 0 28 28" fill="none" xmlns="http://www.w3.org/2000/svg">
<path d="M14.0001 5.83335L14.0001 5.84502M14.0001 14L14.0001 14.0117M14.0001 22.1667L14.0001 22.1784M14.0001 7.00002C13.3557 7.00002 12.8334 6.47769 12.8334 5.83335C12.8334 5.18902 13.3557 4.66669 14.0001 4.66669C14.6444 4.66669 15.1667 5.18902 15.1667 5.83335C15.1667 6.47769 14.6444 7.00002 14.0001 7.00002ZM14.0001 15.1667C13.3557 15.1667 12.8334 14.6444 12.8334 14C12.8334 13.3557 13.3557 12.8334 14.0001 12.8334C14.6444 12.8334 15.1667 13.3557 15.1667 14C15.1667 14.6444 14.6444 15.1667 14.0001 15.1667ZM14.0001 23.3334C13.3557 23.3334 12.8334 22.811 12.8334 22.1667C12.8334 21.5224 13.3557 21 14.0001 21C14.6444 21 15.1667 21.5224 15.1667 22.1667C15.1667 22.811 14.6444 23.3334 14.0001 23.3334Z" stroke="white" stroke-width="2" stroke-linecap="round" stroke-linejoin="round"/>
</svg>
