<svg width="29" height="28" viewBox="0 0 29 28" fill="none" xmlns="http://www.w3.org/2000/svg">
<g clip-path="url(#clip0_854_612)">
<path d="M21.5 18.6667V12.8334C21.5 9.25169 19.5867 6.25335 16.25 5.46002V4.66669C16.25 3.69835 15.4567 2.91669 14.4883 2.91669C13.52 2.91669 12.75 3.69835 12.75 4.66669V5.46002C9.40168 6.25335 7.50001 9.24002 7.50001 12.8334V18.6667L5.98335 20.1717C5.24835 20.9067 5.76168 22.1667 6.80001 22.1667H22.165C23.2033 22.1667 23.7283 20.9067 22.9933 20.1717L21.5 18.6667ZM14.4883 25.6667C15.7717 25.6667 16.8217 24.6167 16.8217 23.3334H12.155C12.155 24.6167 13.1933 25.6667 14.4883 25.6667ZM8.39835 5.51835C8.88835 5.07502 8.90001 4.31669 8.43335 3.85002C7.99001 3.40669 7.26668 3.39502 6.81168 3.82669C4.81668 5.64669 3.44001 8.12002 2.99668 10.8967C2.89168 11.6084 3.44001 12.25 4.16335 12.25C4.72335 12.25 5.21335 11.8417 5.30668 11.2817C5.65668 9.01835 6.77668 7.00002 8.39835 5.51835ZM22.2 3.82669C21.7333 3.39502 21.01 3.40669 20.5667 3.85002C20.1 4.31669 20.1233 5.06335 20.6017 5.50669C22.2117 6.98835 23.3433 9.00669 23.6933 11.27C23.775 11.83 24.265 12.2384 24.8367 12.2384C25.5483 12.2384 26.1083 11.5967 25.9917 10.885C25.5483 8.12002 24.1833 5.65835 22.2 3.82669Z" fill="#F57314"/>
</g>
<defs>
<clipPath id="clip0_854_612">
<rect width="28" height="28" fill="white" transform="translate(0.5)"/>
</clipPath>
</defs>
</svg>
