<svg width="18" height="19" viewBox="0 0 18 19" fill="none" xmlns="http://www.w3.org/2000/svg">
<path d="M8.14396 4.03436C8.41338 3.20518 9.58645 3.20518 9.85586 4.03436L10.8185 6.99698C10.939 7.3678 11.2845 7.61886 11.6744 7.61886H14.7895C15.6614 7.61886 16.0239 8.73452 15.3185 9.24698L12.7984 11.078C12.4829 11.3072 12.3509 11.7134 12.4714 12.0842L13.434 15.0468C13.7034 15.876 12.7544 16.5655 12.0491 16.0531L9.52892 14.2221C9.21348 13.9929 8.78634 13.9929 8.47091 14.2221L5.95075 16.0531C5.24541 16.5655 4.29638 15.876 4.5658 15.0468L5.52841 12.0842C5.6489 11.7134 5.5169 11.3072 5.20146 11.078L2.68131 9.24698C1.97597 8.73452 2.33847 7.61886 3.21032 7.61886H6.3254C6.7153 7.61886 7.06086 7.3678 7.18135 6.99698L8.14396 4.03436Z" fill="#DFE0E7"/>
</svg>
