<svg width="16" height="16" viewBox="0 0 16 16" fill="none" xmlns="http://www.w3.org/2000/svg">
<path d="M4 9.99996H2.66667C2.48986 9.99996 2.32029 9.92972 2.19526 9.8047C2.07024 9.67967 2 9.51011 2 9.33329V6.66663C2 6.48982 2.07024 6.32025 2.19526 6.19522C2.32029 6.0702 2.48986 5.99996 2.66667 5.99996H4L6.33333 2.99996C6.3916 2.88678 6.48843 2.79818 6.60633 2.75016C6.72422 2.70214 6.8554 2.69787 6.97617 2.73812C7.09693 2.77838 7.19932 2.8605 7.26482 2.96965C7.33032 3.07881 7.35463 3.20779 7.33333 3.33329V12.6666C7.35463 12.7921 7.33032 12.9211 7.26482 13.0303C7.19932 13.1394 7.09693 13.2215 6.97617 13.2618C6.8554 13.3021 6.72422 13.2978 6.60633 13.2498C6.48843 13.2017 6.3916 13.1131 6.33333 13L4 9.99996Z" fill="#D8733A"/>
<path d="M10 5.33331C10.414 5.6438 10.75 6.04642 10.9814 6.50927C11.2128 6.97212 11.3333 7.4825 11.3333 7.99998C11.3333 8.51746 11.2128 9.02784 10.9814 9.49069C10.75 9.95354 10.414 10.3562 10 10.6666M11.8 3.33331C12.4959 3.89575 13.0573 4.60673 13.4429 5.41419C13.8286 6.22166 14.0287 7.10515 14.0287 7.99998C14.0287 8.89481 13.8286 9.7783 13.4429 10.5858C13.0573 11.3932 12.4959 12.1042 11.8 12.6666M4 9.99996H2.66667C2.48986 9.99996 2.32029 9.92972 2.19526 9.8047C2.07024 9.67967 2 9.51011 2 9.33329V6.66663C2 6.48982 2.07024 6.32025 2.19526 6.19522C2.32029 6.0702 2.48986 5.99996 2.66667 5.99996H4L6.33333 2.99996C6.3916 2.88678 6.48843 2.79818 6.60633 2.75016C6.72422 2.70214 6.8554 2.69787 6.97617 2.73812C7.09693 2.77838 7.19932 2.8605 7.26482 2.96965C7.33032 3.07881 7.35463 3.20779 7.33333 3.33329V12.6666C7.35463 12.7921 7.33032 12.9211 7.26482 13.0303C7.19932 13.1394 7.09693 13.2215 6.97617 13.2618C6.8554 13.3021 6.72422 13.2978 6.60633 13.2498C6.48843 13.2017 6.3916 13.1131 6.33333 13L4 9.99996Z" stroke="#D8733A" stroke-linecap="round" stroke-linejoin="round"/>
</svg>
