<svg width="20" height="20" viewBox="0 0 20 20" fill="none" xmlns="http://www.w3.org/2000/svg">
<path d="M4.16675 8.33335C4.16675 9.88045 4.78133 11.3642 5.87529 12.4581C6.96925 13.5521 8.45299 14.1667 10.0001 14.1667M10.0001 14.1667C11.5472 14.1667 13.0309 13.5521 14.1249 12.4581C15.2188 11.3642 15.8334 9.88045 15.8334 8.33335M10.0001 14.1667V17.5M6.66675 17.5H13.3334M7.50008 4.16669C7.50008 3.50365 7.76347 2.86776 8.23231 2.39892C8.70116 1.93008 9.33704 1.66669 10.0001 1.66669C10.6631 1.66669 11.299 1.93008 11.7678 2.39892C12.2367 2.86776 12.5001 3.50365 12.5001 4.16669V8.33335C12.5001 8.99639 12.2367 9.63228 11.7678 10.1011C11.299 10.57 10.6631 10.8334 10.0001 10.8334C9.33704 10.8334 8.70116 10.57 8.23231 10.1011C7.76347 9.63228 7.50008 8.99639 7.50008 8.33335V4.16669Z" stroke="#FCFCFC" stroke-width="1.5" stroke-linecap="round" stroke-linejoin="round"/>
</svg>
