<svg width="16" height="16" viewBox="0 0 16 16" fill="none" xmlns="http://www.w3.org/2000/svg">
<path d="M7.33333 12.6666H3.33333C2.97971 12.6666 2.64057 12.5262 2.39052 12.2761C2.14048 12.0261 2 11.6869 2 11.3333V4.66665C2 4.31302 2.14048 3.97389 2.39052 3.72384C2.64057 3.47379 2.97971 3.33331 3.33333 3.33331H12.6667C13.0203 3.33331 13.3594 3.47379 13.6095 3.72384C13.8595 3.97389 14 4.31302 14 4.66665V7.33331M9.33333 9.99998C9.33333 9.82317 9.40357 9.6536 9.5286 9.52857C9.65362 9.40355 9.82319 9.33331 10 9.33331H13.3333C13.5101 9.33331 13.6797 9.40355 13.8047 9.52857C13.9298 9.6536 14 9.82317 14 9.99998V12C14 12.1768 13.9298 12.3464 13.8047 12.4714C13.6797 12.5964 13.5101 12.6666 13.3333 12.6666H10C9.82319 12.6666 9.65362 12.5964 9.5286 12.4714C9.40357 12.3464 9.33333 12.1768 9.33333 12V9.99998Z" stroke="#B15A0B" stroke-width="1.5" stroke-linecap="round" stroke-linejoin="round"/>
</svg>
