<svg width="16" height="16" viewBox="0 0 16 16" fill="none" xmlns="http://www.w3.org/2000/svg">
<path d="M2 3.33331V12.6666C1.99997 12.7839 2.03088 12.8992 2.08963 13.0007C2.14837 13.1022 2.23287 13.1865 2.33458 13.2449C2.4363 13.3033 2.55163 13.3339 2.66893 13.3335C2.78623 13.3331 2.90135 13.3018 3.00267 13.2426L11.0027 8.57597C11.1034 8.51728 11.1869 8.43321 11.245 8.33214C11.3031 8.23107 11.3337 8.11654 11.3337 7.99997C11.3337 7.88341 11.3031 7.76888 11.245 7.66781C11.1869 7.56674 11.1034 7.48267 11.0027 7.42397L3.00267 2.75731C2.90135 2.69819 2.78623 2.66684 2.66893 2.66645C2.55163 2.66605 2.4363 2.69661 2.33458 2.75504C2.23287 2.81347 2.14837 2.89771 2.08963 2.99924C2.03088 3.10077 1.99997 3.216 2 3.33331Z" fill="#D8733A"/>
<path d="M13.3333 2.66665C13.4966 2.66667 13.6542 2.72662 13.7762 2.83512C13.8983 2.94363 13.9762 3.09315 13.9953 3.25531L14 3.33331V12.6666C13.9998 12.8366 13.9347 13 13.8181 13.1236C13.7015 13.2471 13.542 13.3215 13.3724 13.3314C13.2028 13.3414 13.0357 13.2862 12.9054 13.1771C12.7751 13.0681 12.6914 12.9134 12.6713 12.7446L12.6667 12.6666V3.33331C12.6667 3.1565 12.7369 2.98693 12.8619 2.86191C12.987 2.73688 13.1565 2.66665 13.3333 2.66665Z" fill="#D8733A"/>
<path d="M2 3.33331V12.6666C1.99997 12.7839 2.03088 12.8992 2.08963 13.0007C2.14837 13.1022 2.23287 13.1865 2.33458 13.2449C2.4363 13.3033 2.55163 13.3339 2.66893 13.3335C2.78623 13.3331 2.90135 13.3018 3.00267 13.2426L11.0027 8.57597C11.1034 8.51728 11.1869 8.43321 11.245 8.33214C11.3031 8.23107 11.3337 8.11654 11.3337 7.99997C11.3337 7.88341 11.3031 7.76888 11.245 7.66781C11.1869 7.56674 11.1034 7.48267 11.0027 7.42397L3.00267 2.75731C2.90135 2.69819 2.78623 2.66684 2.66893 2.66645C2.55163 2.66605 2.4363 2.69661 2.33458 2.75504C2.23287 2.81347 2.14837 2.89771 2.08963 2.99924C2.03088 3.10077 1.99997 3.216 2 3.33331Z" stroke="#D8733A"/>
<path d="M13.3333 2.66665C13.4966 2.66667 13.6542 2.72662 13.7762 2.83512C13.8983 2.94363 13.9762 3.09315 13.9953 3.25531L14 3.33331V12.6666C13.9998 12.8366 13.9347 13 13.8181 13.1236C13.7015 13.2471 13.542 13.3215 13.3724 13.3314C13.2028 13.3414 13.0357 13.2862 12.9054 13.1771C12.7751 13.0681 12.6914 12.9134 12.6713 12.7446L12.6667 12.6666V3.33331C12.6667 3.1565 12.7369 2.98693 12.8619 2.86191C12.987 2.73688 13.1565 2.66665 13.3333 2.66665Z" stroke="#D8733A"/>
</svg>
