<svg width="32" height="32" viewBox="0 0 32 32" fill="none" xmlns="http://www.w3.org/2000/svg">
<path d="M26.6066 26.6066C26.9971 26.9971 26.9991 27.6329 26.585 27.9983C23.9913 30.2866 20.7175 31.6791 17.2514 31.951C13.4521 32.2491 9.67115 31.1812 6.58909 28.9396C3.50702 26.6981 1.32628 23.43 0.43935 19.7236C-0.447575 16.0173 0.017573 12.1161 1.75107 8.72213C3.48458 5.3282 6.37258 2.66448 9.89528 1.21041C13.418 -0.243667 17.344 -0.3926 20.9668 0.790415C24.5895 1.97343 27.671 4.4107 29.6566 7.66354C31.4681 10.6311 32.259 14.0996 31.9255 17.5423C31.8723 18.092 31.356 18.4632 30.8107 18.3757L30.7242 18.3618C30.1789 18.2743 29.8116 17.7613 29.8596 17.2112C30.1176 14.2604 29.4272 11.2943 27.8748 8.75123C26.1482 5.92279 23.4688 3.80353 20.3187 2.77486C17.1687 1.7462 13.7549 1.8757 10.6918 3.14006C7.62871 4.40441 5.11751 6.72059 3.61018 9.6717C2.10286 12.6228 1.6984 16.015 2.46961 19.2378C3.24081 22.4606 5.13703 25.3023 7.81697 27.2514C10.4969 29.2005 13.7845 30.129 17.0882 29.8698C20.0584 29.6368 22.8662 28.4574 25.1057 26.5187C25.5232 26.1572 26.1542 26.1542 26.5447 26.5447L26.6066 26.6066Z" fill="#F57314"/>
<path d="M8.96946 7.25953C8.69848 6.92264 8.75055 6.42754 9.10438 6.17908C11.218 4.69495 13.761 3.92818 16.3564 4.0053C19.2134 4.09019 21.9463 5.19207 24.0632 7.11262C26.18 9.03316 27.5419 11.6462 27.9036 14.4815C28.2652 17.3168 27.603 20.1881 26.0361 22.5785C24.4692 24.969 22.1005 26.7217 19.3563 27.5211C16.6121 28.3205 13.6727 28.1142 11.0671 26.9392C8.46151 25.7642 6.36088 23.6978 5.14329 21.1119C4.03718 18.7627 3.72581 16.1249 4.24354 13.5947C4.33021 13.1711 4.76344 12.9259 5.18046 13.04C5.59749 13.1541 5.83998 13.5843 5.75746 14.0087C5.33564 16.1782 5.6126 18.4332 6.55981 20.4449C7.61853 22.6935 9.44509 24.4903 11.7107 25.5119C13.9763 26.5336 16.5322 26.713 18.9184 26.0179C21.3045 25.3228 23.3642 23.7988 24.7267 21.7202C26.0891 19.6416 26.665 17.145 26.3505 14.6796C26.036 12.2143 24.8518 9.94215 23.0111 8.27218C21.1705 6.60222 18.7942 5.64411 16.3099 5.57029C14.0874 5.50425 11.909 6.1499 10.088 7.40215C9.73173 7.64712 9.24045 7.59642 8.96946 7.25953Z" fill="#F57314"/>
<path d="M15.5 7.28868C15.8094 7.11005 16.1906 7.11005 16.5 7.28868L23.2942 11.2113C23.6036 11.39 23.7942 11.7201 23.7942 12.0774V19.9227C23.7942 20.2799 23.6036 20.61 23.2942 20.7887L16.5 24.7113C16.1906 24.89 15.8094 24.89 15.5 24.7113L8.70579 20.7887C8.39639 20.61 8.20579 20.2799 8.20579 19.9227V12.0774C8.20579 11.7201 8.39639 11.39 8.70579 11.2113L15.5 7.28868Z" fill="#F57314"/>
<path d="M17.5781 17.6875C17.5781 17.5104 17.5313 17.3516 17.4375 17.2109C17.3438 17.0703 17.1667 16.9427 16.9063 16.8281C16.6511 16.7083 16.2761 16.5964 15.7813 16.4922C15.3438 16.3984 14.9401 16.2813 14.5703 16.1406C14.2005 16 13.8828 15.8307 13.6172 15.6328C13.3516 15.4297 13.1433 15.1927 12.9922 14.9219C12.8464 14.6458 12.7735 14.3281 12.7735 13.9688C12.7735 13.6198 12.849 13.2917 13 12.9844C13.1511 12.6719 13.3698 12.3984 13.6563 12.1641C13.9427 11.9245 14.2917 11.737 14.7031 11.6016C15.1146 11.4609 15.5781 11.3906 16.0938 11.3906C16.8125 11.3906 17.4297 11.5078 17.9453 11.7422C18.4662 11.9766 18.8646 12.2995 19.1406 12.7109C19.4167 13.1172 19.5547 13.5755 19.5547 14.0859H17.4922C17.4922 13.862 17.4401 13.6589 17.336 13.4766C17.237 13.2943 17.0834 13.1484 16.875 13.0391C16.6667 12.9245 16.4037 12.8672 16.086 12.8672C15.7995 12.8672 15.5573 12.9141 15.3594 13.0078C15.1667 13.1016 15.0209 13.224 14.9219 13.375C14.8229 13.526 14.7735 13.6927 14.7735 13.875C14.7735 14.0104 14.7995 14.1328 14.8516 14.2422C14.9089 14.3464 15 14.4427 15.125 14.5313C15.25 14.6198 15.4193 14.7005 15.6328 14.7734C15.8516 14.8464 16.1198 14.9167 16.4375 14.9844C17.0677 15.1094 17.6172 15.276 18.086 15.4844C18.5599 15.6875 18.9297 15.9583 19.1953 16.2969C19.461 16.6354 19.5938 17.0677 19.5938 17.5938C19.5938 17.9688 19.513 18.3125 19.3516 18.625C19.1901 18.9323 18.9557 19.2005 18.6485 19.4297C18.3412 19.6589 17.974 19.8385 17.5469 19.9688C17.1198 20.0938 16.638 20.1563 16.1016 20.1563C15.3255 20.1563 14.6693 20.0182 14.1328 19.7422C13.5964 19.4609 13.1901 19.1068 12.9141 18.6797C12.638 18.2474 12.5 17.7995 12.5 17.3359H14.4766C14.4922 17.6641 14.5808 17.9271 14.7422 18.125C14.9037 18.3229 15.1068 18.4661 15.3516 18.5547C15.6016 18.638 15.8646 18.6797 16.1406 18.6797C16.4531 18.6797 16.7162 18.638 16.9297 18.5547C17.1432 18.4661 17.3047 18.349 17.4141 18.2031C17.5235 18.0521 17.5781 17.8802 17.5781 17.6875Z" fill="#050505"/>
</svg>
