<svg width="18" height="12" viewBox="0 0 18 12" fill="none" xmlns="http://www.w3.org/2000/svg">
<path fill-rule="evenodd" clip-rule="evenodd" d="M9.13825 2.61517C11.6893 2.61526 14.1428 3.46937 15.9916 5.00097C16.1308 5.11921 16.3533 5.11772 16.4905 4.99762L17.8213 3.82729C17.8907 3.76638 17.9294 3.68387 17.9289 3.59802C17.9283 3.51217 17.8885 3.43006 17.8182 3.36986C12.9656 -0.682369 5.31011 -0.682369 0.457513 3.36986C0.387219 3.43002 0.347336 3.5121 0.346688 3.59795C0.34604 3.6838 0.38468 3.76634 0.454059 3.82729L1.78528 4.99762C1.92231 5.1179 2.14501 5.11939 2.28415 5.00097C4.13322 3.46927 6.58698 2.61516 9.13825 2.61517ZM9.13825 6.42275C10.5399 6.42267 11.8915 6.87663 12.9304 7.6964C13.071 7.81275 13.2923 7.81023 13.4293 7.69072L14.7586 6.52039C14.8286 6.459 14.8675 6.37572 14.8664 6.28919C14.8654 6.20265 14.8247 6.12008 14.7532 6.05995C11.5894 3.49554 6.68979 3.49554 3.52595 6.05995C3.45449 6.12008 3.41371 6.20269 3.41277 6.28926C3.41184 6.37582 3.45081 6.45909 3.52096 6.52039L4.84988 7.69072C4.98687 7.81023 5.20823 7.81275 5.34875 7.6964C6.38702 6.87717 7.73756 6.42326 9.13825 6.42275ZM11.8011 8.98459C11.8031 9.07136 11.7639 9.15503 11.6929 9.21583L9.39345 11.2378C9.32604 11.2972 9.23414 11.3307 9.13825 11.3307C9.04237 11.3307 8.95047 11.2972 8.88306 11.2378L6.58327 9.21583C6.51222 9.15498 6.47314 9.07129 6.47524 8.98451C6.47735 8.89774 6.52046 8.81556 6.59439 8.75739C8.06288 7.67512 10.2136 7.67512 11.6821 8.75739C11.756 8.81561 11.799 8.89781 11.8011 8.98459Z" fill="white"/>
</svg>
